<svg width="26" height="26" viewBox="0 0 26 26" fill="none" xmlns="http://www.w3.org/2000/svg">
<mask id="mask0_3425_10061" style="mask-type:alpha" maskUnits="userSpaceOnUse" x="0" y="0" width="26" height="26">
<rect width="26" height="26" fill="#D9D9D9"/>
</mask>
<g mask="url(#mask0_3425_10061)">
<path d="M18.7666 19.8855L18.1813 19.3002C18.0535 19.1724 17.901 19.1085 17.7239 19.1085C17.5469 19.1085 17.3945 19.1724 17.2667 19.3002C17.1389 19.4279 17.075 19.5775 17.075 19.749C17.075 19.9205 17.1389 20.0702 17.2667 20.198L18.2604 21.1917C18.409 21.3403 18.5795 21.4146 18.772 21.4146C18.9643 21.4146 19.1347 21.3403 19.2833 21.1917L21.7333 18.7856C21.8611 18.6578 21.9268 18.507 21.9302 18.3333C21.9336 18.1598 21.868 18.0057 21.7333 17.871C21.6055 17.7432 21.4513 17.6793 21.2707 17.6793C21.0902 17.6793 20.9361 17.7432 20.8084 17.871L18.7666 19.8855ZM7.72932 9.6041H18.2707C18.5013 9.6041 18.6944 9.52637 18.85 9.37091C19.0055 9.21528 19.0832 9.02226 19.0832 8.79187C19.0832 8.55426 19.0055 8.35944 18.85 8.20741C18.6944 8.05539 18.5013 7.97937 18.2707 7.97937H7.72932C7.49875 7.97937 7.30564 8.0571 7.15001 8.21256C6.99455 8.3682 6.91682 8.5613 6.91682 8.79187C6.91682 9.02226 6.99455 9.21528 7.15001 9.37091C7.30564 9.52637 7.49875 9.6041 7.72932 9.6041ZM19.5 24.4376C18.1473 24.4376 16.9966 23.9633 16.048 23.0147C15.0993 22.066 14.625 20.9154 14.625 19.5626C14.625 18.2099 15.0993 17.0592 16.048 16.1106C16.9966 15.162 18.1473 14.6876 19.5 14.6876C20.8527 14.6876 22.0034 15.162 22.952 16.1106C23.9007 17.0592 24.375 18.2099 24.375 19.5626C24.375 20.9154 23.9007 22.066 22.952 23.0147C22.0034 23.9633 20.8527 24.4376 19.5 24.4376ZM3.79167 5.75014C3.79167 5.20992 3.98297 4.74842 4.36557 4.36564C4.74835 3.98305 5.20985 3.79175 5.75007 3.79175H20.2499C20.7902 3.79175 21.2517 3.98305 21.6344 4.36564C22.017 4.74842 22.2083 5.20992 22.2083 5.75014V11.5416C22.2083 11.7722 22.1305 11.9653 21.9749 12.121C21.8194 12.2764 21.6264 12.3541 21.3958 12.3541C21.1653 12.3541 20.9723 12.2764 20.8168 12.121C20.6612 11.9653 20.5833 11.7722 20.5833 11.5416V5.75014C20.5833 5.66673 20.5486 5.59035 20.4791 5.52102C20.4097 5.4515 20.3334 5.41675 20.2499 5.41675H5.75007C5.66665 5.41675 5.59028 5.4515 5.52094 5.52102C5.45143 5.59035 5.41667 5.66673 5.41667 5.75014V20.6376H12.1439C12.173 20.8459 12.2132 21.0543 12.2647 21.2627C12.316 21.4708 12.3764 21.6736 12.4459 21.871C12.5152 22.0347 12.4808 22.1666 12.3427 22.2666C12.2046 22.3667 12.0737 22.3618 11.95 22.252L11.775 22.1188C11.6806 22.0382 11.5751 21.998 11.4584 21.998C11.3418 21.998 11.2362 22.0382 11.1418 22.1188L10.2334 22.8812C10.139 22.9619 10.0334 23.0022 9.91657 23.0022C9.79993 23.0022 9.69439 22.9619 9.59996 22.8812L8.69159 22.1188C8.59716 22.0382 8.49162 21.998 8.37499 21.998C8.25835 21.998 8.15281 22.0382 8.05838 22.1188L7.15001 22.8812C7.05557 22.9619 6.95004 23.0022 6.8334 23.0022C6.71676 23.0022 6.61123 22.9619 6.5168 22.8812L5.60842 22.1188C5.51399 22.0382 5.40846 21.998 5.29182 21.998C5.175 21.998 5.06937 22.0382 4.97494 22.1188L3.79167 23.1772V5.75014ZM7.72932 18.0208H11.6564C11.8868 18.0208 12.0798 17.9431 12.2354 17.7876C12.3911 17.632 12.4689 17.4389 12.4689 17.2083C12.4689 16.9779 12.3911 16.7849 12.2354 16.6292C12.0798 16.4738 11.8868 16.3961 11.6564 16.3961H7.72932C7.49875 16.3961 7.30564 16.4738 7.15001 16.6292C6.99455 16.7849 6.91682 16.9779 6.91682 17.2083C6.91682 17.4389 6.99455 17.632 7.15001 17.7876C7.30564 17.9431 7.49875 18.0208 7.72932 18.0208ZM7.72932 13.8126H15.1791C15.4097 13.8126 15.6028 13.7348 15.7584 13.5791C15.9139 13.4237 15.9916 13.2307 15.9916 13.0001C15.9916 12.7695 15.9139 12.5765 15.7584 12.421C15.6028 12.2654 15.4097 12.1876 15.1791 12.1876H7.72932C7.49875 12.1876 7.30564 12.2654 7.15001 12.421C6.99455 12.5765 6.91682 12.7695 6.91682 13.0001C6.91682 13.2307 6.99455 13.4237 7.15001 13.5791C7.30564 13.7348 7.49875 13.8126 7.72932 13.8126Z" fill="white"/>
</g>
</svg>
