<svg width="22" height="17" viewBox="0 0 22 17" fill="none" xmlns="http://www.w3.org/2000/svg">
<path d="M0.677185 15.9167V13.5082C0.677185 12.9333 0.821991 12.4309 1.1116 12.001C1.40103 11.5711 1.78535 11.2346 2.26454 10.9916C3.18537 10.5222 4.15757 10.1424 5.18114 9.85221C6.20489 9.56188 7.41191 9.41671 8.80219 9.41671C9.34385 9.41671 9.8476 9.43856 10.3134 9.48225C10.7794 9.52595 11.2146 9.59158 11.6189 9.67915L10.1813 11.1167C9.98266 11.0806 9.76771 11.059 9.53641 11.052C9.30512 11.0451 9.06038 11.0417 8.80219 11.0417C7.52024 11.0417 6.39691 11.1847 5.43221 11.4707C4.46768 11.7569 3.66041 12.0805 3.01041 12.4416C2.7645 12.5736 2.58503 12.7278 2.472 12.9042C2.35879 13.0806 2.30219 13.282 2.30219 13.5082V14.2917H8.86448L10.4895 15.9167H0.677185ZM14.7104 16.7249L11.348 13.3625L12.4896 12.2209L14.7104 14.4418L20.1812 8.97092L21.3228 10.1125L14.7104 16.7249ZM8.80219 7.66658C7.75948 7.66658 6.86681 7.29536 6.12419 6.55292C5.38174 5.81029 5.01052 4.91763 5.01052 3.87492C5.01052 2.83221 5.38174 1.93963 6.12419 1.19719C6.86681 0.454565 7.75948 0.083252 8.80219 0.083252C9.84489 0.083252 10.7375 0.454565 11.4799 1.19719C12.2224 1.93963 12.5936 2.83221 12.5936 3.87492C12.5936 4.91763 12.2224 5.81029 11.4799 6.55292C10.7375 7.29536 9.84489 7.66658 8.80219 7.66658ZM8.80219 6.04158C9.39802 6.04158 9.90809 5.82943 10.3324 5.40513C10.7567 4.98082 10.9689 4.47075 10.9689 3.87492C10.9689 3.27908 10.7567 2.76902 10.3324 2.34471C9.90809 1.9204 9.39802 1.70825 8.80219 1.70825C8.20635 1.70825 7.69628 1.9204 7.27198 2.34471C6.84767 2.76902 6.63552 3.27908 6.63552 3.87492C6.63552 4.47075 6.84767 4.98082 7.27198 5.40513C7.69628 5.82943 8.20635 6.04158 8.80219 6.04158Z" fill="white"/>
</svg>
