<svg width="19" height="18" viewBox="0 0 19 18" fill="none" xmlns="http://www.w3.org/2000/svg">
<path d="M9.37213 4.38503C6.81819 4.38503 4.75818 6.4455 4.75818 9C4.75818 11.5545 6.81819 13.615 9.37213 13.615C11.9261 13.615 13.9861 11.5545 13.9861 9C13.9861 6.4455 11.9261 4.38503 9.37213 4.38503ZM9.37213 12.0003C7.72171 12.0003 6.37246 10.6548 6.37246 9C6.37246 7.3452 7.71769 5.99967 9.37213 5.99967C11.0266 5.99967 12.3718 7.3452 12.3718 9C12.3718 10.6548 11.0225 12.0003 9.37213 12.0003ZM15.251 4.19625C15.251 4.79471 14.7691 5.27268 14.1748 5.27268C13.5765 5.27268 13.0986 4.79069 13.0986 4.19625C13.0986 3.60181 13.5805 3.11983 14.1748 3.11983C14.7691 3.11983 15.251 3.60181 15.251 4.19625ZM18.3069 5.28874C18.2386 3.84681 17.9093 2.56956 16.8532 1.51724C15.8011 0.464911 14.5242 0.135557 13.0826 0.0632601C11.5968 -0.0210867 7.14346 -0.0210867 5.65768 0.0632601C4.22009 0.131541 2.94312 0.460895 1.88702 1.51322C0.830909 2.56555 0.505644 3.8428 0.433363 5.28473C0.349035 6.77084 0.349035 11.2251 0.433363 12.7113C0.501629 14.1532 0.830909 15.4304 1.88702 16.4828C2.94312 17.5351 4.21607 17.8644 5.65768 17.9367C7.14346 18.0211 11.5968 18.0211 13.0826 17.9367C14.5242 17.8685 15.8011 17.5391 16.8532 16.4828C17.9053 15.4304 18.2346 14.1532 18.3069 12.7113C18.3912 11.2251 18.3912 6.77485 18.3069 5.28874ZM16.3874 14.3058C16.0742 15.093 15.4678 15.6995 14.6768 16.0168C13.4921 16.4868 10.6812 16.3783 9.37213 16.3783C8.06303 16.3783 5.24809 16.4828 4.0675 16.0168C3.28044 15.7036 2.67408 15.0971 2.35684 14.3058C1.88702 13.1209 1.99544 10.3094 1.99544 9C1.99544 7.69062 1.89103 4.87504 2.35684 3.69419C2.67006 2.90695 3.27642 2.30046 4.0675 1.98315C5.2521 1.51322 8.06303 1.62167 9.37213 1.62167C10.6812 1.62167 13.4962 1.51724 14.6768 1.98315C15.4638 2.29644 16.0702 2.90293 16.3874 3.69419C16.8572 4.87906 16.7488 7.69062 16.7488 9C16.7488 10.3094 16.8572 13.125 16.3874 14.3058Z" fill="white"/>
</svg>
