<svg width="22" height="22" viewBox="0 0 22 22" fill="none" xmlns="http://www.w3.org/2000/svg">
<path d="M13.7917 20.2001L9.56261 15.9711L10.7042 14.8292L13.7917 17.9167L19.9334 11.775L21.0749 12.9169L13.7917 20.2001ZM19.2083 9.83344H17.5833V4.75016C17.5833 4.66675 17.5486 4.59037 17.4791 4.52104C17.4097 4.45152 17.3334 4.41677 17.2499 4.41677H14.875V7.24996H5.12501V4.41677H2.75007C2.66665 4.41677 2.59028 4.45152 2.52094 4.52104C2.45143 4.59037 2.41667 4.66675 2.41667 4.75016V19.25C2.41667 19.3335 2.45143 19.4098 2.52094 19.4792C2.59028 19.5487 2.66665 19.5834 2.75007 19.5834H8.91667V21.2084H2.75007C2.20985 21.2084 1.74835 21.0171 1.36557 20.6345C0.98297 20.2518 0.791672 19.7903 0.791672 19.25V4.75016C0.791672 4.20994 0.98297 3.74844 1.36557 3.36566C1.74835 2.98307 2.20985 2.79177 2.75007 2.79177H7.52296C7.67301 2.264 7.97959 1.82652 8.44271 1.47931C8.90584 1.1321 9.42494 0.958496 10 0.958496C10.5973 0.958496 11.1247 1.1321 11.5822 1.47931C12.0399 1.82652 12.3438 2.264 12.4938 2.79177H17.2499C17.7902 2.79177 18.2517 2.98307 18.6344 3.36566C19.017 3.74844 19.2083 4.20994 19.2083 4.75016V9.83344ZM10 4.54189C10.2791 4.54189 10.5122 4.44846 10.699 4.26158C10.8857 4.07471 10.9791 3.8417 10.9791 3.56256C10.9791 3.28342 10.8857 3.05041 10.699 2.86354C10.5122 2.67684 10.2791 2.5835 10 2.5835C9.72087 2.5835 9.48786 2.67684 9.30098 2.86354C9.11429 3.05041 9.02094 3.28342 9.02094 3.56256C9.02094 3.8417 9.11429 4.07471 9.30098 4.26158C9.48786 4.44846 9.72087 4.54189 10 4.54189Z" fill="white"/>
</svg>
