<svg width="24" height="16" viewBox="0 0 24 16" fill="none" xmlns="http://www.w3.org/2000/svg">
<path d="M0.94812 13.5082C0.94812 12.9499 1.0922 12.4517 1.38037 12.0135C1.66854 11.5753 2.05339 11.2344 2.53493 10.9908C3.56446 10.4872 4.59968 10.0989 5.64058 9.82594C6.68166 9.55312 7.82575 9.41671 9.07285 9.41671C10.3201 9.41671 11.4642 9.55312 12.5051 9.82594C13.5462 10.0989 14.5815 10.4872 15.611 10.9908C16.0926 11.2344 16.4774 11.5753 16.7656 12.0135C17.0538 12.4517 17.1978 12.9499 17.1978 13.5082V14.2709C17.1978 14.7069 17.0378 15.0902 16.7177 15.4208C16.3975 15.7514 16.009 15.9167 15.552 15.9167H2.5937C2.1369 15.9167 1.74843 15.7566 1.42831 15.4365C1.10818 15.1162 0.94812 14.7277 0.94812 14.2709V13.5082ZM21.4063 15.9167H18.9458C19.0819 15.6681 19.1858 15.4035 19.2573 15.1229C19.3288 14.8423 19.3645 14.5583 19.3645 14.2709V13.3749C19.3645 12.6639 19.1905 11.9862 18.8424 11.3418C18.4941 10.6976 18.0001 10.1448 17.3603 9.68348C18.0867 9.79181 18.7764 9.95946 19.4292 10.1864C20.082 10.4136 20.7049 10.682 21.298 10.9916C21.8577 11.2902 22.29 11.6422 22.5947 12.0476C22.8995 12.4528 23.0519 12.8952 23.0519 13.3749V14.2709C23.0519 14.7277 22.8919 15.1162 22.5717 15.4365C22.2516 15.7566 21.8631 15.9167 21.4063 15.9167ZM9.07285 7.66658C8.03014 7.66658 7.13756 7.29536 6.39512 6.55292C5.65268 5.81029 5.28145 4.91763 5.28145 3.87492C5.28145 2.83221 5.65268 1.93963 6.39512 1.19719C7.13756 0.454565 8.03014 0.083252 9.07285 0.083252C10.1156 0.083252 11.0082 0.454565 11.7508 1.19719C12.4933 1.93963 12.8645 2.83221 12.8645 3.87492C12.8645 4.91763 12.4933 5.81029 11.7508 6.55292C11.0082 7.29536 10.1156 7.66658 9.07285 7.66658ZM18.4269 3.87492C18.4269 4.91763 18.0557 5.81029 17.3132 6.55292C16.5708 7.29536 15.6782 7.66658 14.6355 7.66658C14.5133 7.66658 14.3577 7.65268 14.1688 7.62488C13.9798 7.59707 13.8243 7.56656 13.7022 7.53333C14.1294 7.01965 14.4577 6.44982 14.6872 5.82384C14.9165 5.19785 15.0312 4.54785 15.0312 3.87384C15.0312 3.19964 14.9142 2.55208 14.6802 1.93115C14.4462 1.3104 14.1202 0.738939 13.7022 0.216773C13.8577 0.161161 14.0132 0.12505 14.1688 0.108439C14.3243 0.0916476 14.4799 0.083252 14.6355 0.083252C15.6782 0.083252 16.5708 0.454565 17.3132 1.19719C18.0557 1.93963 18.4269 2.83221 18.4269 3.87492ZM2.57285 14.2917H15.5728V13.5082C15.5728 13.282 15.5162 13.0806 15.403 12.9042C15.29 12.7278 15.1105 12.5736 14.8646 12.4416C13.973 11.982 13.055 11.6337 12.1105 11.3968C11.166 11.1601 10.1535 11.0417 9.07285 11.0417C7.99241 11.0417 6.97994 11.1601 6.03545 11.3968C5.09097 11.6337 4.17293 11.982 3.28135 12.4416C3.03543 12.5736 2.85587 12.7278 2.74266 12.9042C2.62945 13.0806 2.57285 13.282 2.57285 13.5082V14.2917ZM9.07285 6.04158C9.66868 6.04158 10.1788 5.82943 10.6031 5.40513C11.0274 4.98082 11.2395 4.47075 11.2395 3.87492C11.2395 3.27908 11.0274 2.76902 10.6031 2.34471C10.1788 1.9204 9.66868 1.70825 9.07285 1.70825C8.47702 1.70825 7.96695 1.9204 7.54264 2.34471C7.11834 2.76902 6.90618 3.27908 6.90618 3.87492C6.90618 4.47075 7.11834 4.98082 7.54264 5.40513C7.96695 5.82943 8.47702 6.04158 9.07285 6.04158Z" fill="white"/>
</svg>
