<svg width="18" height="22" viewBox="0 0 18 22" fill="none" xmlns="http://www.w3.org/2000/svg">
<path d="M8.37492 17.0937V17.7082C8.37492 17.8331 8.42186 17.9425 8.51575 18.0364C8.60946 18.1301 8.71879 18.177 8.84373 18.177H9.51052C9.64106 18.177 9.75526 18.1281 9.85313 18.0302C9.95099 17.9322 9.99992 17.8179 9.99992 17.6873V17.0937H11.3541C11.5843 17.0937 11.7773 17.0158 11.9331 16.8599C12.0888 16.7043 12.1666 16.5114 12.1666 16.2812V13.0312C12.1666 12.801 12.0888 12.608 11.9331 12.4524C11.7773 12.2966 11.5843 12.2187 11.3541 12.2187H7.83325V10.5937H11.3541C11.5843 10.5937 11.7773 10.5158 11.9331 10.3599C12.0888 10.2041 12.1666 10.0111 12.1666 9.7809C12.1666 9.55051 12.0888 9.35758 11.9331 9.20213C11.7773 9.04649 11.5843 8.96867 11.3541 8.96867H9.99992V8.35415C9.99992 8.22902 9.95306 8.11961 9.85935 8.0259C9.76565 7.93219 9.65632 7.88533 9.53137 7.88533H8.86458C8.73404 7.88533 8.61984 7.93426 8.52198 8.03213C8.42394 8.13017 8.37492 8.24446 8.37492 8.375V8.96867H7.02075C6.79054 8.96867 6.59762 9.04658 6.44198 9.2024C6.28616 9.35804 6.20825 9.55096 6.20825 9.78117V13.0312C6.20825 13.2614 6.28616 13.4543 6.44198 13.6099C6.59762 13.7658 6.79054 13.8437 7.02075 13.8437H10.5416V15.4687H7.02075C6.79054 15.4687 6.59762 15.5466 6.44198 15.7024C6.28616 15.8582 6.20825 16.0512 6.20825 16.2814C6.20825 16.5118 6.28616 16.7048 6.44198 16.8602C6.59762 17.0158 6.79054 17.0937 7.02075 17.0937H8.37492ZM2.8334 21.2916C2.28613 21.2916 1.82292 21.102 1.44375 20.7228C1.06458 20.3437 0.875 19.8805 0.875 19.3332V2.66665C0.875 2.11938 1.06458 1.65617 1.44375 1.277C1.82292 0.897835 2.28613 0.708252 2.8334 0.708252H12.104L17.125 5.72923V19.3332C17.125 19.8805 16.9354 20.3437 16.5563 20.7228C16.1771 21.102 15.7139 21.2916 15.1666 21.2916H2.8334ZM2.8334 19.6666H15.1666C15.25 19.6666 15.3264 19.6318 15.3957 19.5623C15.4652 19.493 15.5 19.4166 15.5 19.3332V6.54146H12.2709C11.9933 6.54146 11.7608 6.44766 11.5732 6.26006C11.3856 6.07247 11.2918 5.83991 11.2918 5.5624V2.33325H2.8334C2.74998 2.33325 2.6736 2.36801 2.60427 2.43752C2.53476 2.50686 2.5 2.58323 2.5 2.66665V19.3332C2.5 19.4166 2.53476 19.493 2.60427 19.5623C2.6736 19.6318 2.74998 19.6666 2.8334 19.6666Z" fill="white"/>
</svg>
