<svg width="21" height="21" viewBox="0 0 21 21" fill="none" xmlns="http://www.w3.org/2000/svg">
<path d="M9.56262 4.86483V2.69816C9.56262 2.09149 9.77207 1.57872 10.191 1.15983C10.6098 0.740939 11.1226 0.531494 11.7293 0.531494H13.8957V2.69816C13.8957 3.30483 13.6863 3.81761 13.2676 4.23649C12.8487 4.65538 12.336 4.86483 11.7293 4.86483H9.56262ZM3.93362 10.8229C3.03482 10.8229 2.26917 10.5066 1.63668 9.87416C1.00402 9.24149 0.687683 8.47576 0.687683 7.57695V4.32316H3.94147C4.84028 4.32316 5.60602 4.63949 6.23868 5.27216C6.87135 5.90465 7.18768 6.67029 7.18768 7.5691V10.8229H3.93362ZM14.3334 20.0209C13.6588 20.0209 13.0145 19.9126 12.4004 19.6959C11.7863 19.4793 11.2313 19.1813 10.7353 18.8022L9.4876 20.0502C9.33756 20.2 9.14897 20.2768 8.92183 20.2804C8.69487 20.2838 8.50285 20.2071 8.34577 20.0502C8.18886 19.8931 8.11213 19.7011 8.11556 19.4741C8.11917 19.247 8.19591 19.0584 8.34577 18.9083L9.59377 17.6606C9.2146 17.1646 8.91668 16.6096 8.70002 15.9955C8.48335 15.3815 8.37502 14.7372 8.37502 14.0626C8.37502 12.4098 8.95433 11.0007 10.113 9.83543C11.2714 8.67031 12.6782 8.08774 14.3334 8.08774H20.2979V14.0626C20.2979 15.7154 19.7163 17.1217 18.5532 18.2814C17.3899 19.4411 15.9833 20.0209 14.3334 20.0209ZM14.3334 18.3959C15.5431 18.3959 16.5632 17.9716 17.3938 17.123C18.2243 16.2744 18.6396 15.2543 18.6396 14.0626V9.72927H14.3334C13.1417 9.72927 12.1215 10.1491 11.2729 10.9886C10.4243 11.8282 10 12.8529 10 14.0626C10 14.5196 10.0653 14.954 10.1958 15.3658C10.3264 15.7775 10.5118 16.1563 10.7521 16.5023L13.7624 13.4917C13.9195 13.3348 14.1098 13.2563 14.3334 13.2563C14.5569 13.2563 14.7472 13.3348 14.9043 13.4917C15.0612 13.6488 15.1396 13.8391 15.1396 14.0626C15.1396 14.2861 15.0612 14.4764 14.9043 14.6335L11.8937 17.6438C12.2396 17.8841 12.6176 18.0696 13.0277 18.2001C13.4379 18.3307 13.8731 18.3959 14.3334 18.3959Z" fill="white"/>
</svg>
